<?xml version="1.0" encoding="UTF-8"?>
<svg width="14px" height="14px" viewBox="0 0 14 14" version="1.1" xmlns="http://www.w3.org/2000/svg" xmlns:xlink="http://www.w3.org/1999/xlink">
    <!-- Generator: Sketch 62 (91390) - https://sketch.com -->
    <title>menu</title>
    <desc>Created with Sketch.</desc>
    <g id="Page-1" stroke="none" stroke-width="1" fill="none" fill-rule="evenodd">
        <g id="menu" fill="#515151">
            <path d="M1.66671,3 C0.930328,3 0.333374,2.40305 0.333374,1.66667 C0.333374,0.930286 0.930328,0.333333 1.66671,0.333333 C2.40309,0.333333 3.00004,0.930287 3.00004,1.66667 C3.00004,2.40305 2.40309,3 1.66671,3 Z M7.00004,3 C6.26366,3 5.66671,2.40305 5.66671,1.66667 C5.66671,0.930287 6.26366,0.333333 7.00004,0.333333 C7.73642,0.333333 8.33337,0.930287 8.33337,1.66667 C8.33337,2.40305 7.73642,3 7.00004,3 Z M12.3334,3 C11.597,3 11,2.40305 11,1.66667 C11,0.930287 11.597,0.333333 12.3334,0.333333 C13.0698,0.333333 13.6667,0.930287 13.6667,1.66667 C13.6667,2.40305 13.0698,3 12.3334,3 Z M1.66671,8.33333 C0.930328,8.33333 0.333374,7.73638 0.333374,7 C0.333374,6.26362 0.930328,5.66667 1.66671,5.66667 C2.40309,5.66667 3.00004,6.26362 3.00004,7 C3.00004,7.73638 2.40309,8.33333 1.66671,8.33333 Z M7.00004,8.33333 C6.26366,8.33333 5.66671,7.73638 5.66671,7 C5.66671,6.26362 6.26366,5.66667 7.00004,5.66667 C7.73642,5.66667 8.33337,6.26362 8.33337,7 C8.33337,7.73638 7.73642,8.33333 7.00004,8.33333 Z M12.3334,8.33333 C11.597,8.33333 11,7.73638 11,7 C11,6.26362 11.597,5.66667 12.3334,5.66667 C13.0698,5.66667 13.6667,6.26362 13.6667,7 C13.6667,7.73638 13.0698,8.33333 12.3334,8.33333 Z M0.333374,12.3333 C0.333374,13.0697 0.930328,13.6667 1.66671,13.6667 C2.40309,13.6667 3.00004,13.0697 3.00004,12.3333 C3.00004,11.597 2.40309,11 1.66671,11 C0.930328,11 0.333374,11.597 0.333374,12.3333 Z M5.66671,12.3333 C5.66671,13.0697 6.26366,13.6667 7.00004,13.6667 C7.73642,13.6667 8.33337,13.0697 8.33337,12.3333 C8.33337,11.597 7.73642,11 7.00004,11 C6.26366,11 5.66671,11.597 5.66671,12.3333 Z M11,12.3333 C11,13.0697 11.597,13.6667 12.3334,13.6667 C13.0698,13.6667 13.6667,13.0697 13.6667,12.3333 C13.6667,11.597 13.0698,11 12.3334,11 C11.597,11 11,11.597 11,12.3333 Z" id="Shape"></path>
        </g>
    </g>
</svg>